PathFileType	4	(X/Y/Z)	FAIDC1_INITIAL_WALK01.trc	
DataRate	CameraRate	NumFrames	NumMarkers	Units	OrigDataRate	OrigDataStartFrame	OrigNumFrames
100	100	6	49	mm	100	314	113
Frame#	Time	RSH			LSH			C7			LELB			LWR			RELB			RWR			RASI			LASI			SACR			P1			P2			P3			LTHLP			LTHLD			LTHAP			LTHAD			LLEPI			LPAT			LMEPI			LTIAP			LTIAD			LTILAT			LLMAL			LMMAL			LHEEL			LMFS			LMFL			LP5MT			LP1MT			LTOE			RTHLP			RTHLD			RTHAP			RTHAD			RLEPI			RPAT			RMEPI			RTIAP			RTIAD			RTILAT			RLMAL			RMMAL			RHEEL			RMFS			RMFL			RP5MT			RP1MT			RTOE			
		X1	Y1	Z1	X2	Y2	Z2	X3	Y3	Z3	X4	Y4	Z4	X5	Y5	Z5	X6	Y6	Z6	X7	Y7	Z7	X8	Y8	Z8	X9	Y9	Z9	X10	Y10	Z10	X11	Y11	Z11	X12	Y12	Z12	X13	Y13	Z13	X14	Y14	Z14	X15	Y15	Z15	X16	Y16	Z16	X17	Y17	Z17	X18	Y18	Z18	X19	Y19	Z19	X20	Y20	Z20	X21	Y21	Z21	X22	Y22	Z22	X23	Y23	Z23	X24	Y24	Z24	X25	Y25	Z25	X26	Y26	Z26	X27	Y27	Z27	X28	Y28	Z28	X29	Y29	Z29	X30	Y30	Z30	X31	Y31	Z31	X32	Y32	Z32	X33	Y33	Z33	X34	Y34	Z34	X35	Y35	Z35	X36	Y36	Z36	X37	Y37	Z37	X38	Y38	Z38	X39	Y39	Z39	X40	Y40	Z40	X41	Y41	Z41	X42	Y42	Z42	X43	Y43	Z43	X44	Y44	Z44	X45	Y45	Z45	X46	Y46	Z46	X47	Y47	Z47	X48	Y48	Z48	X49	Y49	Z49	

71	0.70000	1029.37512	1486.28247	209.86130	1029.40149	1503.40967	-141.70224	946.85248	1526.10107	44.43709	1003.43719	1147.85156	-249.72928	1156.23792	945.58252	-229.32959	951.97144	1150.74377	316.39789	991.69489	899.87311	338.51547	1066.33301	1023.21265	163.44748	1058.97546	1013.71759	-111.26523	886.01312	1089.03625	27.82660	880.85040	1066.32153	-21.65503	884.18329	1068.83179	81.08174	865.59930	1003.21362	32.81781	981.32709	719.58221	-157.60059	972.94305	617.78625	-147.77887	1082.54614	717.68341	-103.58133	1066.02197	614.92542	-97.81583	941.68536	493.61935	-133.84384	1019.04889	455.15448	-85.54840	960.51599	487.70221	-11.30634	868.46704	370.09613	-60.43036	757.30530	304.10324	-51.38031	784.32257	375.71875	-133.27679	602.39063	247.13477	-97.87839	637.50183	238.08546	-8.22447	564.00818	304.23950	-57.95438	634.79657	160.75278	-27.85257	594.83606	177.08965	-98.61905	594.10913	106.95621	-105.71191	607.26349	84.74245	9.74783	636.72620	39.82510	-16.55975	1088.62537	738.00763	201.45221	1118.60608	629.60181	172.30829	1171.00366	768.60687	133.08530	1189.72498	663.81586	109.24483	1140.89941	524.72290	157.41025	1216.28027	548.81818	91.96410	1132.81348	526.72400	29.62906	1190.56763	400.23877	72.41855	1183.74194	251.34212	61.62679	1126.82935	323.21698	159.75331	1141.48462	91.60883	104.09955	1160.71118	115.71327	13.01532	1073.72534	79.67569	60.63461	1242.38684	96.94768	56.75500	1214.14087	69.11417	111.87762	1271.13635	50.15005	124.26509	1313.62952	59.51656	22.70097	1360.14612	53.83280	46.51532	
72	0.71000	1043.16895	1488.07422	210.60004	1042.51892	1505.10486	-140.96600	960.25208	1528.04041	45.41518	1015.65863	1149.42639	-247.82471	1160.89258	941.54163	-231.25809	969.65027	1151.68018	317.12360	1013.90527	901.37018	337.86627	1079.35400	1024.79175	164.64862	1072.05408	1015.30133	-110.19238	899.23834	1090.68396	28.85541	894.00800	1067.76208	-20.66556	897.24670	1070.58276	82.08344	878.64441	1004.85736	33.99451	1001.21826	720.45343	-157.01154	996.19855	618.44366	-147.48740	1102.93079	721.16241	-105.01868	1089.52905	617.83887	-99.01144	969.14398	494.64969	-133.70703	1046.40308	456.71802	-85.08066	988.87103	488.26556	-10.90997	895.66455	371.12827	-61.50079	782.56921	307.71469	-51.78848	810.78217	378.70914	-133.86459	626.93945	253.63472	-98.34903	662.23035	242.23073	-8.73724	592.27789	313.05765	-57.82791	655.11169	165.51189	-29.03806	615.61914	184.35059	-99.29831	610.22040	114.40419	-106.83759	623.11584	89.95711	7.83604	649.25671	44.46566	-21.52493	1098.86719	738.46619	202.23291	1127.87915	629.83868	173.01547	1181.70398	767.40759	135.01685	1199.61340	663.17590	109.66545	1148.85059	524.82031	157.77966	1224.92993	547.78430	92.47014	1140.32471	527.20636	30.27956	1196.57251	399.56479	72.74136	1187.15442	250.87617	61.75798	1131.00122	323.54663	159.84468	1141.78809	91.95788	103.86349	1161.68201	115.76225	12.74959	1074.16748	80.39843	60.57692	1242.79736	96.51830	56.63911	1214.45959	69.09584	111.86470	1271.40332	49.95424	124.39803	1314.25391	59.09731	22.81126	1360.66455	52.62919	46.42613	
73	0.72000	1056.81677	1489.93359	211.22435	1055.52979	1506.74036	-140.32559	973.52252	1530.00793	46.26912	1027.64453	1151.05090	-246.09790	1165.25171	937.92511	-233.34058	987.08850	1152.75232	317.91449	1036.48071	903.24670	337.09012	1092.15454	1026.43286	165.78253	1084.96582	1017.19916	-109.18695	912.12555	1092.42883	29.85794	906.78070	1069.46375	-19.71872	910.17535	1072.36328	83.05334	891.46436	1006.51398	35.10225	1020.33899	721.94440	-156.61536	1018.88446	619.82013	-147.23047	1122.66748	725.10022	-106.16513	1112.23926	621.50262	-99.86807	996.39807	496.20383	-133.51678	1074.22888	459.13107	-84.80167	1016.57983	490.22705	-10.58392	923.11237	372.61011	-62.40149	807.98584	311.73404	-52.10416	837.68622	381.65164	-134.40866	651.16284	260.63562	-98.71100	686.46082	247.50302	-9.48752	618.60486	320.82651	-56.76779	677.66119	171.12729	-30.72446	637.62170	192.07545	-100.02875	630.04480	122.57198	-108.30014	643.78210	96.15344	5.91893	668.46295	50.26281	-23.97488	1108.93628	739.08936	202.93442	1136.44055	629.97943	173.28271	1191.78552	766.43390	136.29425	1208.98523	662.38550	110.26842	1155.72900	524.68292	158.11752	1232.76355	546.72290	92.99825	1147.55090	527.77069	30.63742	1202.31189	398.88394	73.41693	1190.23389	250.40010	61.86899	1134.01831	323.97253	159.67508	1141.98804	92.28397	103.55740	1162.45813	115.77515	12.61278	1074.55627	81.10475	60.45715	1243.22021	96.13344	56.37599	1214.73181	69.11378	111.71826	1271.56848	49.85263	124.41715	1314.72070	58.86521	22.87743	1361.03992	51.70043	46.18558	
74	0.73000	1070.21851	1491.89270	211.78258	1068.37219	1508.36633	-139.75690	986.67975	1531.98962	47.03320	1039.41589	1152.73804	-244.78592	1169.36670	934.79919	-235.55066	1004.29425	1153.98499	318.73355	1059.31873	905.46442	336.19635	1104.85669	1028.12170	166.75595	1097.73364	1019.31262	-108.18610	924.93604	1094.25952	30.87796	919.18823	1071.35852	-18.76627	922.95306	1074.16357	84.10170	904.22009	1008.24487	36.25034	1039.03931	723.88324	-156.24435	1040.92249	621.82721	-147.04752	1141.79053	729.50592	-106.81238	1134.10181	625.76355	-100.09052	1023.31311	498.63455	-133.53226	1101.82507	462.04187	-84.65189	1043.66992	492.94501	-10.36783	950.64642	374.60867	-63.02948	833.59235	316.43250	-52.31854	864.47028	385.19138	-134.58258	675.66248	267.65225	-98.83768	711.56836	253.71567	-9.66550	643.28308	327.56635	-56.44452	702.79865	177.60272	-32.11975	661.74084	199.23889	-100.76910	654.34943	129.86659	-109.89139	669.90118	102.03413	3.92674	693.31287	55.95852	-26.24258	1118.44751	739.66437	203.50476	1144.66943	630.39191	173.81735	1202.09094	765.88879	137.10289	1217.76331	661.57349	110.87154	1161.74854	524.58612	158.53133	1239.92285	545.69086	93.59685	1154.78040	528.25775	30.93954	1207.60168	398.30743	74.06519	1193.13879	249.97293	61.78188	1136.41748	324.45547	159.45981	1142.20557	92.73737	103.27557	1163.27466	115.95488	12.34752	1074.98010	81.96155	60.19556	1243.69141	95.80405	56.16206	1215.00391	69.13712	111.57187	1271.70422	49.74992	124.46662	1315.18201	58.66532	23.02115	1361.41602	50.90136	46.12744	
75	0.74000	1083.40918	1493.94519	212.28638	1081.10107	1509.99548	-139.24951	999.71851	1533.95422	47.76624	1050.87158	1154.49170	-243.67175	1173.22522	932.14850	-237.84875	1021.26086	1155.36609	319.58112	1082.31738	908.07727	335.18320	1117.31592	1029.83044	167.72058	1110.43359	1021.47888	-107.28036	937.68207	1096.05273	31.83226	931.78021	1073.11829	-17.74384	935.55200	1076.02759	85.08377	916.89294	1010.05713	37.27777	1057.32837	726.28058	-155.88983	1062.64697	624.28967	-146.89413	1160.02966	734.02844	-107.00748	1155.48755	629.91992	-100.22852	1049.79663	502.01349	-133.65598	1129.11938	465.64850	-85.03726	1070.42871	495.98428	-10.41418	978.14398	377.14688	-63.33859	859.66125	321.28418	-52.25391	890.46185	390.22485	-134.67682	700.98834	274.14734	-98.79434	737.16693	260.17953	-9.64868	666.92377	332.94464	-56.16708	729.52698	184.01718	-32.71701	688.20288	205.31100	-101.42636	682.51251	135.91151	-111.15897	698.56812	107.35555	2.60492	722.00482	61.45540	-27.48926	1127.55493	740.19397	203.98370	1151.94800	630.62311	174.49757	1211.50708	765.17413	137.54539	1225.93262	660.71844	111.44429	1167.16516	524.59833	158.88316	1246.32422	544.62347	94.33029	1161.51147	528.43616	31.28954	1212.31665	397.85855	74.61417	1195.54285	249.79488	62.11034	1138.73230	324.76379	159.42578	1142.41992	93.11335	103.05452	1164.08276	116.10263	12.14551	1075.31372	82.67472	59.96533	1244.01733	95.56242	56.04280	1215.18530	69.12273	111.45364	1271.78943	49.63921	124.51685	1315.52466	58.49756	23.13631	1361.66406	50.25827	46.16595	
76	0.75000	1096.42261	1496.13428	212.77939	1093.65588	1511.67761	-138.83304	1012.68018	1535.95349	48.37561	1061.93652	1156.36877	-242.74023	1176.81091	930.13593	-240.25949	1037.91858	1156.89514	320.39929	1105.36230	911.11591	334.00638	1129.66626	1031.59656	168.65930	1122.97583	1023.83606	-106.30511	949.91199	1098.23840	32.77087	944.45422	1074.96240	-16.89618	947.96924	1077.89783	85.90327	929.28522	1011.95752	38.14618	1075.37598	728.95972	-155.56525	1083.95862	627.42676	-147.02127	1177.00403	738.11823	-107.18112	1177.70728	635.83179	-99.96277	1075.81079	506.18567	-133.72137	1156.14014	469.90744	-85.78497	1096.92773	499.16785	-10.60730	1005.51874	380.20944	-63.32980	886.05798	326.59143	-52.05591	916.10858	396.39832	-134.59235	727.18121	279.51364	-98.60248	763.74811	265.80087	-9.52438	690.99121	336.91806	-55.97287	757.50879	189.67789	-32.70972	716.33545	210.24326	-101.71939	713.24908	140.77544	-111.94385	728.66595	111.98156	1.79070	753.16382	66.28472	-27.65811	1136.23608	740.94849	204.32942	1158.63416	630.86877	174.95779	1220.77832	764.71399	137.77995	1233.57483	659.91113	112.08948	1172.18237	524.62909	159.25305	1252.31909	543.61475	95.04726	1167.65442	528.29517	31.58002	1216.15906	397.35208	75.07147	1197.69971	249.48235	62.17358	1141.41565	325.11258	159.49463	1142.50134	93.36407	102.88724	1164.66687	116.26026	12.05249	1075.59412	83.37443	59.87592	1244.25537	95.39606	55.97664	1215.28833	69.09544	111.38562	1271.82275	49.51789	124.55210	1315.77222	58.36898	23.23767	1361.83997	49.71355	46.11171	
